<svg width="40" height="40" viewBox="0 0 20 20" fill="none" xmlns="http://www.w3.org/2000/svg">
<path d="M8.9304 13.5104C9.9557 13.5104 10.9131 13.1758 11.6913 12.6181L14.619 15.5553C14.7549 15.6916 14.934 15.7598 15.1193 15.7598C15.5207 15.7598 15.811 15.4499 15.811 15.0534C15.811 14.8675 15.7493 14.6939 15.6134 14.5576L12.7043 11.6328C13.3157 10.8273 13.6801 9.82959 13.6801 8.74519C13.6801 6.12401 11.5431 3.97998 8.9304 3.97998C6.31156 3.97998 4.18066 6.12401 4.18066 8.74519C4.18066 11.3664 6.31156 13.5104 8.9304 13.5104ZM8.9304 12.4818C6.88598 12.4818 5.20597 10.7901 5.20597 8.74519C5.20597 6.7003 6.88598 5.00862 8.9304 5.00862C10.9687 5.00862 12.6548 6.7003 12.6548 8.74519C12.6548 10.7901 10.9687 12.4818 8.9304 12.4818Z" fill="#212121" fill-opacity="0.6"/>
</svg>
